<svg width="26" height="26" viewBox="0 0 26 26" fill="none" xmlns="http://www.w3.org/2000/svg">
<path d="M15.0999 2.78301V7.12008C15.0999 7.70813 15.0999 8.00216 15.2143 8.22676C15.315 8.42433 15.4756 8.58496 15.6732 8.68563C15.8978 8.80007 16.1918 8.80007 16.7799 8.80007H21.1169M17.1999 14.05H8.79985M17.1999 18.25H8.79985M10.8999 9.85H8.79985M15.0999 2.5H9.63985C7.87569 2.5 6.99361 2.5 6.31978 2.84333C5.72707 3.14533 5.24518 3.62722 4.94318 4.21993C4.59985 4.89375 4.59985 5.77583 4.59985 7.54V18.46C4.59985 20.2242 4.59985 21.1062 4.94318 21.7801C5.24518 22.3728 5.72707 22.8547 6.31978 23.1567C6.99361 23.5 7.87569 23.5 9.63985 23.5H16.3599C18.124 23.5 19.0061 23.5 19.6799 23.1567C20.2726 22.8547 20.7545 22.3728 21.0565 21.7801C21.3999 21.1062 21.3999 20.2242 21.3999 18.46V8.8L15.0999 2.5Z" stroke="#793E94" stroke-width="2.1" stroke-linecap="round" stroke-linejoin="round"/>
</svg>
